<?xml version="1.0" encoding="utf-8"?>
<!-- Generator: Adobe Illustrator 27.1.1, SVG Export Plug-In . SVG Version: 6.00 Build 0)  -->
<svg version="1.1" id="Layer_1" xmlns="http://www.w3.org/2000/svg" xmlns:xlink="http://www.w3.org/1999/xlink" x="0px" y="0px"
	 width="141.2px" height="62.9px" viewBox="0 0 141.2 62.9" style="enable-background:new 0 0 141.2 62.9;" xml:space="preserve">
<style type="text/css">
	.st0{enable-background:new    ;}
	.st1{fill:#FFFFFF;}
</style>
<g>
	<g id="Layer_1_00000157994543589537783680000016085879138184316835_">
		<g>
			<g class="st0">
				<path class="st1" d="M69.6,16.9c0,1,0,2,0.2,2.9h-1.9l-0.2-1.5h-0.1c-0.7,0.9-1.9,1.8-3.6,1.8c-2.4,0-3.6-1.7-3.6-3.4
					c0-2.9,2.6-4.4,7.2-4.4v-0.2c0-1-0.3-2.8-2.7-2.7c-1.1,0-2.3,0.3-3.1,0.9l-0.5-1.5c1-0.6,2.4-1,3.9-1c3.6,0,4.5,2.5,4.5,4.8
					V16.9z M67.5,13.7c-2.4,0-5,0.4-5,2.7c0,1.4,0.9,2.1,2,2.1c1.6,0,2.6-1,2.9-2c0.1-0.2,0.1-0.5,0.1-0.7V13.7z"/>
				<path class="st1" d="M73.1,11.5c0-1.4,0-2.6-0.1-3.7h1.9l0.1,2.4H75c0.5-1.6,1.9-2.6,3.3-2.6c0.2,0,0.4,0,0.6,0v2
					c-0.2,0-0.4,0-0.7,0c-1.5,0-2.6,1.1-2.9,2.8c0,0.3-0.1,0.7-0.1,1v6.3h-2.2V11.5z"/>
				<path class="st1" d="M89.3,16.9c0,1,0,2,0.2,2.9h-1.9l-0.2-1.5h-0.1c-0.7,0.9-1.9,1.8-3.6,1.8c-2.4,0-3.6-1.7-3.6-3.4
					c0-2.9,2.6-4.4,7.2-4.4v-0.2c0-1-0.3-2.8-2.7-2.7c-1.1,0-2.3,0.3-3.1,0.9l-0.5-1.5c1-0.6,2.4-1,3.9-1c3.6,0,4.5,2.5,4.5,4.8
					V16.9z M87.3,13.7c-2.4,0-5,0.4-5,2.7c0,1.4,0.9,2.1,2,2.1c1.6,0,2.6-1,2.9-2c0.1-0.2,0.1-0.5,0.1-0.7V13.7z"/>
				<path class="st1" d="M92.8,2.3H95v7.5h0c0.8-1.3,2.1-2.2,4.1-2.2c3,0,5,2.5,5,6c0,4.3-2.7,6.4-5.4,6.4c-1.7,0-3.1-0.7-4-2.2h0
					l-0.1,1.9h-1.8c0-0.8,0.1-2,0.1-3.1V2.3z M95,15c0,0.3,0,0.5,0.1,0.8c0.4,1.5,1.7,2.5,3.2,2.5c2.3,0,3.6-1.8,3.6-4.6
					c0-2.4-1.2-4.4-3.6-4.4c-1.5,0-2.8,1-3.3,2.7C95,12.2,95,12.5,95,12.8V15z"/>
			</g>
			<g class="st0">
				<path class="st1" d="M63.5,24.8l1,4.9c0.2,1.3,0.5,2.6,0.7,4h0c0.2-1.4,0.6-2.8,0.9-3.9l1.3-4.9h2.9l1.2,4.8
					c0.3,1.4,0.6,2.7,0.9,4.1h0c0.2-1.4,0.4-2.7,0.7-4.1l1-4.8h3.7l-3.7,12h-3.5l-1.1-4.2c-0.3-1.2-0.5-2.3-0.8-3.7h0
					c-0.2,1.5-0.5,2.6-0.8,3.7l-1.2,4.2h-3.5l-3.5-12H63.5z"/>
				<path class="st1" d="M91.1,30.7c0,4.4-3.1,6.4-6.3,6.4c-3.5,0-6.2-2.3-6.2-6.2s2.6-6.4,6.4-6.4C88.6,24.5,91.1,27.1,91.1,30.7z
					 M82.4,30.8c0,2.1,0.9,3.6,2.5,3.6c1.5,0,2.4-1.5,2.4-3.6c0-1.8-0.7-3.6-2.4-3.6C83,27.2,82.4,29,82.4,30.8z"/>
				<path class="st1" d="M93.4,28.6c0-1.5,0-2.8-0.1-3.8h3.1l0.2,1.6h0.1c0.5-0.8,1.6-1.9,3.6-1.9c1.5,0,2.8,0.8,3.3,2h0
					c0.4-0.6,1-1.1,1.5-1.5c0.7-0.4,1.4-0.6,2.3-0.6c2.3,0,4.1,1.6,4.1,5.2v7.1h-3.6v-6.5c0-1.7-0.6-2.8-1.8-2.8
					c-0.9,0-1.5,0.6-1.7,1.3c-0.1,0.3-0.1,0.7-0.1,1v7h-3.6v-6.7c0-1.5-0.5-2.6-1.7-2.6c-1,0-1.5,0.7-1.7,1.4
					c-0.1,0.3-0.1,0.6-0.1,0.9v7h-3.6V28.6z"/>
				<path class="st1" d="M117.4,32c0.1,1.5,1.6,2.3,3.4,2.3c1.3,0,2.3-0.2,3.3-0.5l0.5,2.5c-1.2,0.5-2.7,0.7-4.4,0.7
					c-4.1,0-6.4-2.4-6.4-6.1c0-3,1.9-6.4,6.1-6.4c3.9,0,5.4,3,5.4,6c0,0.6-0.1,1.2-0.1,1.5H117.4z M121.8,29.4
					c0-0.9-0.4-2.4-2.1-2.4c-1.6,0-2.2,1.4-2.3,2.4H121.8z"/>
				<path class="st1" d="M127.5,28.6c0-1.5,0-2.8-0.1-3.8h3.2l0.2,1.6h0.1c0.5-0.8,1.7-1.9,3.7-1.9c2.5,0,4.3,1.6,4.3,5.2v7.1h-3.7
					v-6.7c0-1.5-0.5-2.6-1.9-2.6c-1,0-1.6,0.7-1.9,1.4c-0.1,0.2-0.1,0.6-0.1,0.9v6.9h-3.7V28.6z"/>
			</g>
			<g class="st0">
				<path class="st1" d="M61.2,39.3h2.2v7.4h0c0.3-0.6,0.9-1.2,1.5-1.5c0.6-0.4,1.4-0.6,2.2-0.6c1.6,0,4.2,1,4.2,5.1v7.1h-2.2v-6.8
					c0-1.9-0.7-3.5-2.8-3.5c-1.4,0-2.5,1-2.9,2.1c-0.1,0.3-0.1,0.6-0.1,1v7.2h-2.2V39.3z"/>
				<path class="st1" d="M76.1,51.2c0,2.9,1.9,4.1,4.1,4.1c1.5,0,2.5-0.3,3.3-0.6l0.4,1.5c-0.8,0.3-2.1,0.8-4,0.8
					c-3.7,0-5.8-2.4-5.8-6s2.1-6.4,5.6-6.4c3.9,0,4.9,3.4,4.9,5.6c0,0.4,0,0.8-0.1,1H76.1z M82.4,49.7c0-1.4-0.6-3.5-3-3.5
					c-2.2,0-3.1,2-3.3,3.5H82.4z"/>
				<path class="st1" d="M95.5,53.9c0,1,0,2,0.2,2.9h-1.9l-0.2-1.5h-0.1c-0.7,0.9-1.9,1.8-3.6,1.8c-2.4,0-3.6-1.7-3.6-3.4
					c0-2.9,2.6-4.4,7.2-4.4V49c0-1-0.3-2.8-2.7-2.7c-1.1,0-2.3,0.3-3.1,0.9l-0.5-1.5c1-0.6,2.4-1,3.9-1c3.6,0,4.5,2.5,4.5,4.8V53.9z
					 M93.4,50.7c-2.4,0-5,0.4-5,2.7c0,1.4,0.9,2.1,2,2.1c1.6,0,2.6-1,2.9-2c0.1-0.2,0.1-0.5,0.1-0.7V50.7z"/>
				<path class="st1" d="M99,39.3h2.2v17.5H99V39.3z"/>
				<path class="st1" d="M107.4,42v2.9h3.1v1.6h-3.1v6.4c0,1.5,0.4,2.3,1.6,2.3c0.6,0,0.9,0,1.3-0.1l0.1,1.6
					c-0.4,0.1-1.1,0.3-1.9,0.3c-1,0-1.8-0.3-2.3-0.9c-0.6-0.7-0.8-1.7-0.8-3.1v-6.5h-1.8v-1.6h1.8v-2.2L107.4,42z"/>
				<path class="st1" d="M113,39.3h2.2v7.4h0c0.3-0.6,0.9-1.2,1.5-1.5c0.6-0.4,1.4-0.6,2.2-0.6c1.6,0,4.2,1,4.2,5.1v7.1h-2.2v-6.8
					c0-1.9-0.7-3.5-2.8-3.5c-1.4,0-2.5,1-2.9,2.1c-0.1,0.3-0.1,0.6-0.1,1v7.2H113V39.3z"/>
			</g>
			<g>
				<path class="st1" d="M38.6,6.4c-3.7,0-17,6.6-23.2,10c-6.2,3.4-2.8,9.4-2.8,9.4l3.2,4.2l3.5,4.6l6.8,8.9
					c0.1,0.1,0.2,0.2,0.2,0.3c-0.5-2-0.8-4.1-0.4-5.7c0.4-1.5,1.6-3.1,1.9-4.8c0.1-0.3,0.1-0.6,0.1-0.9c0-0.3,0.1-0.6,0.1-0.8
					c0.3-6-4.3-7.4-8.2-11.5c-0.2-0.3-2.7-3.1-2.6-3.3c0.3-0.1,0.3,0.1,0.5,0.3c3.2,2.7,8.1,7.3,12.6,6.9c2.5-0.2,6.7-3,8.6-4.6
					c1.1-0.9,2.1-1.9,3.2-2.8c-0.1,0.4-0.4,0.8-0.6,1.1c-0.7,1-1.8,2.2-2.6,3c-2.5,2.6-6.2,4.4-7.3,8c-0.4,1.2-0.4,2.3-0.3,3.3
					c0.3,3.3,2.5,5.6,2.2,8.9c-0.2,2.3-1.1,4.7-1.9,7.2c1.3,0.1,2.8-0.7,4.8-2.5c2.7-2.5,6.4-8.5,9.2-15c2.2-5.1,3.8-10.6,3.8-14.7
					C49.3,6.7,42.3,6.4,38.6,6.4L38.6,6.4z M30.7,21.6c-0.5,0.6-1.2,1-1.9,0.4c-1.4-1.1-1.3-3.8,0-5c0.6-0.6,0.9-0.6,1.6,0
					C31.5,18.1,31.5,20.4,30.7,21.6L30.7,21.6z"/>
				<path class="st1" d="M28.7,57c-1.2,2-3.3,3.4-6.8,2.7C15.3,58.4,5.6,49,3.3,44.2c-2.2-4.8-0.7-6,3.3-8.6l9.2-5.6l5.7-3.5
					c0,0,4.9-2.1,6.1,3.8c0.1,0.4,0.2,0.9,0.3,1.3c0,0.3,0,0.6-0.1,0.8c0,0.3-0.1,0.6-0.1,0.9c-0.3,1.7-1.5,3.3-1.9,4.8
					c-0.4,1.6-0.1,3.7,0.4,5.7c0.5,2,1.2,3.9,1.6,5.5c0.3,1.1,0.8,3.4,0.9,5.3C28.9,55.5,28.9,56.4,28.7,57L28.7,57z"/>
				<path class="st1" d="M27.9,49.3c0.3,1.1,0.8,3.4,0.9,5.3L18.3,39.8c0,0-1.6-3.2,1-5.1c0.7-0.6,1.8-1,3.4-1.3
					c1.4-0.2,3.2-0.5,5.2-0.8c0,0.3-0.1,0.6-0.1,0.9c-0.3,1.7-1.5,3.3-1.9,4.8c-0.4,1.6-0.1,3.7,0.4,5.7
					C26.8,45.7,27.5,47.7,27.9,49.3L27.9,49.3z"/>
				<path class="st1" d="M58.2,40.2c-1.4,6.9-12.4,17.1-18.1,19.4c-5.3,2.1-7,0.8-9.9-3c0-1.4,0.2-2.8,0.4-4.1c0-0.3,0-0.7,0-1.1
					c0.2-1.1,0.5-2.2,0.8-3.4c0.7-2.4,1.7-4.9,1.9-7.2c0.3-3.3-1.8-5.6-2.2-8.9c5.1-0.7,10.7-1.3,14.3-1.4c1.2,0,2.2,0,2.9,0.2
					C52.3,31.6,59.6,33.3,58.2,40.2L58.2,40.2z"/>
			</g>
		</g>
	</g>
</g>
</svg>
